<svg width="48" height="48" viewBox="0 0 48 48" fill="none" xmlns="http://www.w3.org/2000/svg">
<path d="M21 24C22.3929 23.9998 23.7719 24.2768 25.0567 24.8147C26.3414 25.3527 27.5064 26.1409 28.4836 27.1335C29.4608 28.126 30.2307 29.3031 30.7486 30.5961C31.2665 31.8892 31.5219 33.2723 31.5 34.665C31.4965 34.8956 31.5462 35.1239 31.6452 35.3321C31.7443 35.5404 31.89 35.723 32.0711 35.8658C32.2522 36.0086 32.4638 36.1077 32.6894 36.1554C32.915 36.2031 33.1486 36.1982 33.372 36.141C34.0372 35.9706 34.7325 35.9543 35.405 36.0935C36.0774 36.2327 36.7091 36.5236 37.252 36.9441C37.7949 37.3646 38.2346 37.9035 38.5375 38.5198C38.8405 39.136 38.9986 39.8133 39 40.5C39 41.6935 38.5259 42.8381 37.682 43.682C36.8381 44.5259 35.6935 45 34.5 45H9C8.20231 44.9955 7.41352 44.832 6.67978 44.519C5.94603 44.206 5.28207 43.7498 4.72672 43.1772C4.17136 42.6046 3.73578 41.9269 3.44543 41.1839C3.15509 40.4409 3.01581 39.6475 3.03576 38.8501C3.05571 38.0526 3.23447 37.2671 3.5616 36.5396C3.88873 35.812 4.35765 35.157 4.94093 34.6129C5.52422 34.0687 6.21016 33.6463 6.95863 33.3704C7.7071 33.0945 8.50308 32.9706 9.3 33.006C9.64567 33.0238 9.98685 32.9215 10.2657 32.7165C10.5446 32.5114 10.7439 32.2162 10.83 31.881C11.411 29.6254 12.7254 27.627 14.5665 26.2003C16.4076 24.7736 18.6708 23.9996 21 24ZM34.419 33C34.0815 29.9584 32.7206 27.1218 30.5594 24.9551C28.3982 22.7884 25.565 21.4203 22.5243 21.0751C19.4835 20.7299 16.4158 21.428 13.8239 23.0551C11.232 24.6821 9.26978 27.1415 8.259 30.03C5.94282 30.2196 3.78975 31.2977 2.25049 33.0388C0.711227 34.7799 -0.094903 37.0488 0.000843622 39.3708C0.0965902 41.6928 1.08679 43.8877 2.76417 45.4961C4.44155 47.1045 6.67607 48.0017 9 48H34.5C36.4891 48 38.3968 47.2098 39.8033 45.8033C41.2098 44.3968 42 42.4891 42 40.5C42 38.5109 41.2098 36.6032 39.8033 35.1967C38.3968 33.7902 36.4891 33 34.5 33H34.419Z" fill="black"/>
<path d="M31.5 4.5C31.5 4.10218 31.342 3.72064 31.0607 3.43934C30.7794 3.15804 30.3978 3 30 3C29.6022 3 29.2206 3.15804 28.9393 3.43934C28.658 3.72064 28.5 4.10218 28.5 4.5V7.5C28.5 7.89782 28.658 8.27936 28.9393 8.56066C29.2206 8.84196 29.6022 9 30 9C30.3978 9 30.7794 8.84196 31.0607 8.56066C31.342 8.27936 31.5 7.89782 31.5 7.5V4.5ZM42.729 10.392C42.8723 10.2536 42.9865 10.0881 43.0652 9.90511C43.1438 9.7221 43.1851 9.52527 43.1869 9.3261C43.1886 9.12693 43.1507 8.92941 43.0752 8.74507C42.9998 8.56072 42.8884 8.39325 42.7476 8.25241C42.6068 8.11157 42.4393 8.00019 42.2549 7.92477C42.0706 7.84935 41.8731 7.81139 41.6739 7.81312C41.4747 7.81486 41.2779 7.85623 41.0949 7.93485C40.9119 8.01346 40.7464 8.12773 40.608 8.271L38.484 10.392C38.2023 10.6737 38.0441 11.0557 38.0441 11.454C38.0441 11.8523 38.2023 12.2343 38.484 12.516C38.7657 12.7977 39.1477 12.9559 39.546 12.9559C39.9443 12.9559 40.3263 12.7977 40.608 12.516L42.729 10.392ZM19.392 8.271C19.1091 7.99776 18.7302 7.84657 18.3369 7.84999C17.9436 7.85341 17.5674 8.01116 17.2893 8.28927C17.0112 8.56738 16.8534 8.9436 16.85 9.3369C16.8466 9.73019 16.9978 10.1091 17.271 10.392L19.392 12.516C19.5315 12.6555 19.697 12.7661 19.8792 12.8416C20.0615 12.917 20.2568 12.9559 20.454 12.9559C20.6512 12.9559 20.8465 12.917 21.0287 12.8416C21.211 12.7661 21.3765 12.6555 21.516 12.516C21.6555 12.3765 21.7661 12.211 21.8416 12.0288C21.917 11.8465 21.9559 11.6512 21.9559 11.454C21.9559 11.2568 21.917 11.0615 21.8416 10.8793C21.7661 10.697 21.6555 10.5315 21.516 10.392L19.392 8.271ZM24.594 18.393C24.9669 17.6203 25.5011 16.9366 26.1607 16.3879C26.8202 15.8393 27.5898 15.4384 28.4174 15.2124C29.2451 14.9865 30.1116 14.9406 30.9584 15.078C31.8053 15.2154 32.6129 15.5328 33.3266 16.0088C34.0404 16.4848 34.6438 17.1083 35.0961 17.8373C35.5485 18.5663 35.8392 19.3839 35.9487 20.2348C36.0582 21.0857 35.9839 21.9502 35.7309 22.77C35.4779 23.5898 35.052 24.3458 34.482 24.987C35.082 25.833 35.598 26.731 36.03 27.681C37.0467 26.7624 37.8402 25.6238 38.3501 24.352C38.8599 23.0801 39.0726 21.7087 38.972 20.3422C38.8714 18.9757 38.4601 17.6502 37.7695 16.4668C37.0788 15.2833 36.1271 14.2732 34.9868 13.5134C33.8466 12.7537 32.5479 12.2643 31.1898 12.0826C29.8317 11.9009 28.45 12.0317 27.1501 12.465C25.8502 12.8983 24.6664 13.6227 23.689 14.583C22.7116 15.5432 21.9663 16.714 21.51 18.006C22.568 18.04 23.596 18.169 24.594 18.393ZM38.046 30.615C39.846 31.26 41.421 32.385 42.612 33.831C42.7753 33.6987 42.909 33.5336 43.0045 33.3464C43.0999 33.1591 43.1549 32.9539 43.1659 32.744C43.1769 32.5342 43.1438 32.3243 43.0685 32.1281C42.9932 31.9319 42.8776 31.7537 42.729 31.605L40.608 29.484C40.3942 29.2689 40.1201 29.1237 39.8221 29.0675C39.524 29.0113 39.2159 29.0468 38.9384 29.1693C38.6609 29.2918 38.4271 29.4955 38.2678 29.7536C38.1085 30.0117 38.0311 30.312 38.046 30.615ZM43.5 19.5C43.1022 19.5 42.7206 19.658 42.4393 19.9393C42.158 20.2206 42 20.6022 42 21C42 21.3978 42.158 21.7794 42.4393 22.0607C42.7206 22.342 43.1022 22.5 43.5 22.5H46.5C46.8978 22.5 47.2794 22.342 47.5607 22.0607C47.842 21.7794 48 21.3978 48 21C48 20.6022 47.842 20.2206 47.5607 19.9393C47.2794 19.658 46.8978 19.5 46.5 19.5H43.5Z" fill="black"/>
</svg>
