<svg width="48" height="48" viewBox="0 0 48 48" fill="none" xmlns="http://www.w3.org/2000/svg">
<path d="M24 12C29.24 12 33.76 15.72 34.78 20.86L35.38 23.86L38.44 24.08C39.9435 24.1811 41.3528 24.848 42.3844 25.9464C43.416 27.0448 43.9933 28.4931 44 30C44 33.3 41.3 36 38 36H12C7.58 36 4 32.42 4 28C4 23.9 7.06 20.48 11.12 20.06L13.26 19.84L14.26 17.94C15.1799 16.1497 16.576 14.6479 18.2944 13.5999C20.0129 12.5519 21.9872 11.9983 24 12ZM24 8C18.22 8 13.2 11.28 10.7 16.08C7.76047 16.3977 5.04201 17.7904 3.06698 19.9906C1.09194 22.1909 -0.000343404 25.0434 8.09855e-08 28C8.09855e-08 34.62 5.38 40 12 40H38C43.52 40 48 35.52 48 30C48 24.72 43.9 20.44 38.7 20.08C38.0282 16.6754 36.1952 13.6097 33.5141 11.4065C30.8331 9.20327 27.4702 7.99922 24 8Z" fill="white"/>
</svg>
