<svg width="49" height="49" viewBox="0 0 49 49" fill="none" xmlns="http://www.w3.org/2000/svg">
<path d="M12.474 36.075C12.661 36.1374 12.8339 36.236 12.9827 36.3652C13.1316 36.4944 13.2536 36.6517 13.3416 36.828C13.4296 37.0044 13.4821 37.1964 13.4959 37.393C13.5096 37.5897 13.4846 37.7871 13.422 37.974L11.922 42.474C11.7854 42.8372 11.5135 43.1333 11.1632 43.3001C10.813 43.467 10.4117 43.4917 10.0437 43.369C9.6756 43.2464 9.36939 42.9858 9.18933 42.6422C9.00927 42.2985 8.96937 41.8985 9.078 41.526L10.578 37.026C10.7033 36.6485 10.9735 36.3362 11.3291 36.1579C11.6846 35.9795 12.0965 35.9497 12.474 36.075ZM21.474 36.075C21.661 36.1374 21.8339 36.236 21.9827 36.3652C22.1316 36.4944 22.2536 36.6517 22.3416 36.828C22.4296 37.0044 22.4821 37.1964 22.4959 37.393C22.5096 37.5897 22.4846 37.7871 22.422 37.974L19.422 46.974C19.2854 47.3372 19.0135 47.6333 18.6632 47.8001C18.313 47.967 17.9117 47.9917 17.5437 47.869C17.1756 47.7464 16.8694 47.4858 16.6893 47.1422C16.5093 46.7985 16.4694 46.3985 16.578 46.026L19.578 37.026C19.7033 36.6485 19.9735 36.3362 20.3291 36.1579C20.6846 35.9795 21.0965 35.9497 21.474 36.075ZM30.474 36.075C30.661 36.1374 30.8339 36.236 30.9827 36.3652C31.1316 36.4944 31.2536 36.6517 31.3416 36.828C31.4296 37.0044 31.4821 37.1964 31.4959 37.393C31.5097 37.5897 31.4846 37.7871 31.422 37.974L29.922 42.474C29.7854 42.8372 29.5135 43.1333 29.1632 43.3001C28.813 43.467 28.4117 43.4917 28.0437 43.369C27.6756 43.2464 27.3694 42.9858 27.1893 42.6422C27.0093 42.2985 26.9694 41.8985 27.078 41.526L28.578 37.026C28.7033 36.6485 28.9735 36.3362 29.3291 36.1579C29.6846 35.9795 30.0965 35.9497 30.474 36.075ZM39.474 36.075C39.661 36.1374 39.8339 36.236 39.9827 36.3652C40.1316 36.4944 40.2536 36.6517 40.3416 36.828C40.4296 37.0044 40.4821 37.1964 40.4959 37.393C40.5097 37.5897 40.4846 37.7871 40.422 37.974L37.422 46.974C37.3655 47.1677 37.2705 47.348 37.1427 47.5042C37.0149 47.6603 36.8569 47.789 36.6782 47.8827C36.4994 47.9763 36.3036 48.033 36.1025 48.0492C35.9014 48.0654 35.6991 48.0408 35.5077 47.977C35.3162 47.9132 35.1397 47.8115 34.9885 47.6778C34.8373 47.5442 34.7147 47.3814 34.6279 47.1993C34.5411 47.0171 34.4919 46.8193 34.4834 46.6177C34.4748 46.4161 34.507 46.2149 34.578 46.026L37.578 37.026C37.7033 36.6485 37.9735 36.3362 38.3291 36.1579C38.6846 35.9795 39.0965 35.9497 39.474 36.075ZM40.215 15.081C39.592 11.9405 37.9807 9.08164 35.6166 6.92245C33.2525 4.76325 30.2597 3.41697 27.0757 3.08044C23.8917 2.74391 20.6836 3.43478 17.9204 5.05204C15.1572 6.6693 12.9838 9.12813 11.718 12.069C10.2985 11.9055 8.86058 12.0334 7.49225 12.4449C6.12392 12.8565 4.85398 13.5429 3.76019 14.4623C2.66639 15.3817 1.77176 16.5147 1.13106 17.7919C0.490363 19.0691 0.117083 20.4636 0.0340755 21.8901C-0.0489321 23.3165 0.16008 24.7449 0.648313 26.0878C1.13655 27.4307 1.89373 28.6598 2.8735 29.6998C3.85327 30.7399 5.03501 31.569 6.34638 32.1365C7.65774 32.704 9.07112 32.9978 10.5 33H39C41.2833 33.0026 43.4823 32.1373 45.1515 30.5792C46.8206 29.0212 47.8352 26.887 47.9897 24.6089C48.1441 22.3308 47.4269 20.0791 45.9834 18.31C44.5398 16.5409 42.4778 15.3867 40.215 15.081ZM25.5 6.00001C28.4519 5.9994 31.3004 7.08682 33.5009 9.05435C35.7015 11.0219 37.0996 13.7315 37.428 16.665C37.4688 17.0336 37.6446 17.374 37.9217 17.6205C38.1987 17.8671 38.5572 18.0023 38.928 18H39C40.5913 18 42.1174 18.6322 43.2426 19.7574C44.3679 20.8826 45 22.4087 45 24C45 25.5913 44.3679 27.1174 43.2426 28.2427C42.1174 29.3679 40.5913 30 39 30H10.5C9.43822 29.9995 8.38865 29.7735 7.42073 29.3371C6.45281 28.9006 5.58859 28.2636 4.88524 27.4682C4.1819 26.6728 3.65546 25.7371 3.34075 24.723C3.02604 23.7089 2.93023 22.6396 3.05966 21.5858C3.18909 20.5319 3.54082 19.5175 4.09156 18.6098C4.64231 17.702 5.37953 16.9215 6.25445 16.3199C7.12937 15.7183 8.12205 15.3094 9.16682 15.1201C10.2116 14.9309 11.2846 14.9656 12.315 15.222C12.6826 15.3137 13.0712 15.2629 13.4029 15.0798C13.7346 14.8967 13.9847 14.5949 14.103 14.235C14.895 11.838 16.4228 9.7519 18.469 8.27341C20.5152 6.79493 22.9756 5.9994 25.5 6.00001Z" fill="white"/>
</svg>
